<svg id="Layer_1" data-name="Layer 1" xmlns="http://www.w3.org/2000/svg" viewBox="0 0 784 452.41"><defs><style>.cls-1{fill:#22b573;}.cls-2{fill:#f7931e;}</style></defs><path class="cls-1" d="M747,772V730.76S753,652,771,621l7-17a49.15,49.15,0,0,1-39-30s49,12,113-62c0,0,45-41,142-53l1-1s-11-43-10-47c0,0,32-41,62-37,0,0,33,4,44,14,0,0,25,13,45,5,0,0,40-9,44-7h16s27,7,41,29c0,0,33,50,52,54,0,0,9,7,47,6,0,0,37-6,51-27,0,0,14-14,16-38V395.53s2.66-42,18-62.53c17-22.77,48-20.63,73.77,61.8.08.24.15.48.23.73L1470,402l-15-43s-21-38-21,9v19l1,10-1,24s-7,50-17,60c0,0-26,48-44,54,0,0-22,23-58,34,0,0-49,17-74,14,0,0-40,1-57-13,0,0-24,44-30,53,0,0-30,35-30,64,0,0-3,23-1,86H958.39l.61-97-29,4-1,92Z" transform="translate(-739 -320.59)"/><path class="cls-2" d="M1523,459.64a11.61,11.61,0,0,1-23.21,0c0-10.19,11.61-22.64,11.61-22.64S1523,448.89,1523,459.64Z" transform="translate(-739 -320.59)"/><path class="cls-2" d="M1493,430.23a12.47,12.47,0,0,1-24.93,0c0-11,12.46-24.33,12.46-24.33S1493,418.67,1493,430.23Z" transform="translate(-739 -320.59)"/></svg>