<svg id="Layer_1" data-name="Layer 1" xmlns="http://www.w3.org/2000/svg" viewBox="0 0 958.26 611.84"><defs><style>.cls-1{fill:#22b573;}.cls-2{fill:#f7931e;}</style></defs><path class="cls-1" d="M747,772V730.76S753,652,771,621l7-17a49.15,49.15,0,0,1-39-30s49,12,113-62c0,0,45-41,142-53l1-1s-11-43-10-47c0,0,32-41,62-37,0,0,33,4,44,14,0,0,25,13,45,5,0,0,40-9,44-7h16s27,7,41,29c0,0,33,50,52,54,0,0,9,7,47,6,0,0,37-6,51-27,0,0,14-14,16-38V395.53s2.66-42,18-62.53c17-22.77,48-20.63,73.77,61.8.08.24.15.48.23.73L1470,402l-15-43s-21-38-21,9v19l1,10-1,24s-7,50-17,60c0,0-26,48-44,54,0,0-22,23-58,34,0,0-49,17-74,14,0,0-40,1-57-13,0,0-24,44-30,53,0,0-30,35-30,64,0,0-3,23-1,86H958.39l.61-97-29,4-1,92Z" transform="translate(-680.44 -161.16)"/><path class="cls-2" d="M1523,459.64a11.61,11.61,0,0,1-23.21,0c0-10.19,11.61-22.64,11.61-22.64S1523,448.89,1523,459.64Z" transform="translate(-680.44 -161.16)"/><path class="cls-2" d="M1493,430.23a12.47,12.47,0,0,1-24.93,0c0-11,12.46-24.33,12.46-24.33S1493,418.67,1493,430.23Z" transform="translate(-680.44 -161.16)"/><path class="cls-1" d="M774.93,362.75c-2.29,3.36-5.55,7.5-9.71,12.47a116.42,116.42,0,0,1-13.43,13.66c-11.13,9.58-21.83,15-32.66,16.08s-20.49-2.32-28.88-10.7c-8-8-11.22-17.68-9.25-29.19S690.34,342,703.11,331a104.73,104.73,0,0,1,14.75-10.65A85.25,85.25,0,0,1,736,312.58l10.38,13.51-2.11,1.64c-1.34.17-3.28.45-5.83.86a62.8,62.8,0,0,0-7.1,1.57,47.29,47.29,0,0,0-8.33,3.33,44.18,44.18,0,0,0-8.74,5.85,41.72,41.72,0,0,0-8,8.83,28.56,28.56,0,0,0-4.09,9.68,20.4,20.4,0,0,0,.37,9.75,22.62,22.62,0,0,0,5.41,9.2c5.47,5.9,11.61,8.56,18.36,8.2s13.88-3.87,21.59-10.38c.66-.56,1.38-1.19,2.16-1.88s1.49-1.34,2.11-1.95l-9.08-11q-6.9,5.71-13.69,11.66l-9-10.34q16-14,32.71-26.85Z" transform="translate(-680.44 -161.16)"/><path class="cls-1" d="M811,296.72l-1.63,1a22.88,22.88,0,0,0-4.08,1.85q-2.7,1.47-4.42,2.58a55.57,55.57,0,0,0-6.6,4.86,50.65,50.65,0,0,0-5.45,5.62l20.48,30.48q-8.52,5.75-16.9,11.8l-32.08-44.49q9.12-6.58,18.39-12.83l4.5,6.69a45.49,45.49,0,0,1,7-12.52,32.81,32.81,0,0,1,7.54-6.73c.66-.42,1.41-.87,2.27-1.36s1.61-.9,2.27-1.23Z" transform="translate(-680.44 -161.16)"/><path class="cls-1" d="M885.64,272.47q-21.71,10-42.78,21.73a12.31,12.31,0,0,0,9.86,5.84c4.2.3,9.31-1.15,15.4-4.27a43.16,43.16,0,0,0,10.39-7.43,45.37,45.37,0,0,0,6.88-8l2.08-1,5.94,12.8a95.11,95.11,0,0,1-10.14,8.68,88.51,88.51,0,0,1-11.46,7c-11.2,5.79-20.82,8.38-29.22,7.52s-15-5.09-19.71-12.94-5.45-15.67-2.11-23.73,10.42-15.09,21.16-20.71c9.91-5.19,18.48-6.83,25.43-5.16s12.15,6.45,15.69,14.13Zm-23.36-.19c-1.76-3.23-4-5.21-6.72-5.91s-6.1,0-10.08,2.09a17.91,17.91,0,0,0-7.82,7.19c-1.52,2.83-1.46,6,.15,9.56Q849.93,278.48,862.28,272.28Z" transform="translate(-680.44 -161.16)"/><path class="cls-1" d="M958.71,244q-22.53,7.25-44.61,16.17a12.34,12.34,0,0,0,9,7c4.1.84,9.29,0,15.64-2.29a42.06,42.06,0,0,0,11.09-6.06,44.48,44.48,0,0,0,7.71-7.13l2.16-.7q2.19,6.7,4.36,13.42a94.17,94.17,0,0,1-11,7.34A85.57,85.57,0,0,1,941,277.23c-11.69,4.33-21.44,5.68-29.59,3.76s-14.15-6.94-17.87-15.31-3.54-16.2.67-23.74,12-13.62,23.2-17.84c10.36-3.9,19-4.46,25.62-1.93s11.21,7.89,13.8,16Zm-23-3.09c-1.35-3.43-3.31-5.67-5.92-6.7s-6-.78-10.15.8a17.66,17.66,0,0,0-8.53,6.14c-1.82,2.61-2.13,5.78-1,9.49Q922.87,245.48,935.74,240.89Z" transform="translate(-680.44 -161.16)"/><path class="cls-1" d="M1039.89,248.15q-9.75,1.86-19.44,4-3-13.27-6-26.54a52,52,0,0,0-1.85-6.36,12,12,0,0,0-2.44-4.43,6.6,6.6,0,0,0-3.93-1.8,18.38,18.38,0,0,0-6.34.65,22.23,22.23,0,0,0-5.48,2.16,33,33,0,0,0-5.6,4l9.9,37.6q-9.63,2.52-19.18,5.36l-15.66-52.56q10.39-3.09,20.87-5.84l1.54,5.86a52.84,52.84,0,0,1,9.27-8.15,32.14,32.14,0,0,1,11-4.6c7.09-1.61,13-1.07,17.68,1.51s7.61,7.29,8.9,14Z" transform="translate(-680.44 -161.16)"/><path class="cls-1" d="M1155.89,237q-29.51.09-58.92,3-3.56-36.18-7.1-72.36,32.81-3.19,65.77-3.31l0,14.06q-20.82.08-41.62,1.4l.81,12.53q18.93-1.22,37.91-1.36.06,7,.11,14.06-18.57.15-37.12,1.33.57,9,1.15,17.93,19.44-1.24,38.91-1.31Z" transform="translate(-680.44 -161.16)"/><path class="cls-1" d="M1192.19,237.89q-9.87-.54-19.76-.77.87-38,1.76-76,11.08.26,22.16.86Q1194.27,200,1192.19,237.89Z" transform="translate(-680.44 -161.16)"/><path class="cls-1" d="M1275.23,223.4q-23.13-4.23-46.48-6.77a12.31,12.31,0,0,0,4.53,10.44c3.16,2.67,8,4.42,14.68,5.36a41.7,41.7,0,0,0,12.52-.12,44.56,44.56,0,0,0,10.1-2.65l2.22.4-2.52,13.88a92.85,92.85,0,0,1-13.07,1.29,82.22,82.22,0,0,1-13.12-.87c-12.21-1.69-21.3-5.1-27.46-10.65s-9-12.79-8.29-21.92,4.51-15.94,11.7-20.6,16.76-6.33,28.51-4.77c10.84,1.45,18.63,5,23.24,10.37s6.08,12.24,4.55,20.56Zm-18.61-13.54c.44-3.65-.22-6.56-2-8.69s-4.86-3.51-9.22-4.08a17.24,17.24,0,0,0-10.3,1.39c-2.8,1.44-4.56,4.09-5.29,7.9Q1243.25,207.85,1256.62,209.86Z" transform="translate(-680.44 -161.16)"/><path class="cls-1" d="M1355.59,239.25a31.17,31.17,0,0,1-6,11.06,27.87,27.87,0,0,1-8.69,6.93,28.58,28.58,0,0,1-10.31,3,30.65,30.65,0,0,1-10.87-1,36.64,36.64,0,0,1-8.43-3.22,50.34,50.34,0,0,1-6.66-4.53l-5.34,22.23q-9.36-2.25-18.77-4.18l15.18-73.41q10.59,2.19,21.1,4.7c-.45,1.85-.89,3.7-1.34,5.55a50.94,50.94,0,0,1,11.06-2.65,31.66,31.66,0,0,1,12.08,1.12c8.11,2.23,13.7,6.51,16.65,12.65S1358.24,230.91,1355.59,239.25ZM1335,233.48c1.45-5.13,1.46-9.15,0-12s-4.5-5-9.09-6.16a25.61,25.61,0,0,0-6.17-.78,27.17,27.17,0,0,0-6.38.67q-3.21,13.4-6.43,26.79a18.44,18.44,0,0,0,4,1.87c1.46.49,2.91.92,4.36,1.29,5.17,1.31,9.35,1,12.61-.88S1333.49,238.74,1335,233.48Z" transform="translate(-680.44 -161.16)"/><path class="cls-1" d="M1418.94,293.86q-9.15-4.22-18.42-8.1l10.55-25.08a52.71,52.71,0,0,0,2.19-6.26,12,12,0,0,0,.58-5,6.74,6.74,0,0,0-2.19-3.76,18.64,18.64,0,0,0-5.6-3.17,22.57,22.57,0,0,0-5.78-1.44,32.71,32.71,0,0,0-6.93,0q-6.88,18.17-13.78,36.35-9.37-3.54-18.83-6.78,12.33-35.94,24.65-71.89,10.61,3.63,21.12,7.61l-9.65,25.44a52.66,52.66,0,0,1,12.37-1.23,32.72,32.72,0,0,1,11.74,2.67c6.78,2.84,11.38,6.75,13.72,11.58s2,10.39-.83,16.62Z" transform="translate(-680.44 -161.16)"/><path class="cls-1" d="M1472.24,314.82l-4.84.22a31.5,31.5,0,0,1-5.16-.16,33.43,33.43,0,0,1-6.26-1.46,43.15,43.15,0,0,1-6.44-2.82c-5.29-2.8-9-6.49-11.19-11.18a15.32,15.32,0,0,1,0-13.8,14.58,14.58,0,0,1,7.18-7.42,20.68,20.68,0,0,1,10.86-1.28,55.48,55.48,0,0,1,14.43,4.05q8.18,3.34,16.63,7.69l.14-.25c1.51-2.63,1.24-5.2-.85-7.72s-5.73-5.22-11-8a43.17,43.17,0,0,0-10.81-4c-4.06-.95-7-1.54-8.8-1.83l-1.77-.88,5.9-11.85c2.29.59,5.91,1.76,10.87,3.57a105.06,105.06,0,0,1,14.37,6.54c11,6,18.08,12,21.27,17.55s3,11.09-.47,16.68l-19.62,31.74q-8.6-5.32-17.33-10.34Zm4.25-7.41,5.67-9.87q-3.87-1.89-8.46-3.87a49.39,49.39,0,0,0-7.19-2.58,10.62,10.62,0,0,0-5.37-.14,5.44,5.44,0,0,0-3.4,2.9,9.33,9.33,0,0,0-1,2.62,4.29,4.29,0,0,0,.56,2.61,8.93,8.93,0,0,0,2.1,2.75,26.66,26.66,0,0,0,4.8,3.15,20.33,20.33,0,0,0,6,2.11A21.42,21.42,0,0,0,1476.49,307.41Z" transform="translate(-680.44 -161.16)"/><path class="cls-1" d="M1554.52,378.8q-8.07-6.65-16.31-13l16.54-21.59a50.87,50.87,0,0,0,3.69-5.51,11.69,11.69,0,0,0,1.79-4.75,6.94,6.94,0,0,0-1.26-4.27,20,20,0,0,0-4.78-4.61,23.62,23.62,0,0,0-5.37-3,34.8,34.8,0,0,0-6.86-1.87L1519.47,352q-8.42-6-17-11.65l30.23-45.77q9.32,6.17,18.47,12.67c-1.17,1.65-2.33,3.3-3.5,4.94a55.23,55.23,0,0,1,12.54,2.15,34.59,34.59,0,0,1,11,5.8c6,4.62,9.64,9.7,10.79,15.06s-.49,10.71-4.85,16Q1565.83,365,1554.52,378.8Z" transform="translate(-680.44 -161.16)"/><path class="cls-1" d="M1600.27,419.68q-2.94-1.92-6-4.29c-2-1.59-4.35-3.66-7-6.19-6-5.65-9.52-10.74-10.66-15.48s.45-9.62,4.87-14.67q8.46-9.63,16.9-19.27-3.45-3-7-6l7.73-9.07q3.55,3,7.08,6.14L1616.58,339q8.81,7.74,17.39,15.8l-10.73,11.43q7.83,7.35,15.46,15-4.21,4.2-8.42,8.42-7.52-7.5-15.19-14.72l-13.32,14.19c-1.32,1.41-2.45,2.64-3.4,3.72a8.82,8.82,0,0,0-1.95,3.47,6,6,0,0,0,.29,4,15.21,15.21,0,0,0,3.76,5,30.92,30.92,0,0,0,7,4.57l1.28,1.27Z" transform="translate(-680.44 -161.16)"/></svg>